<?xml version="1.0" encoding="UTF-8" standalone="no"?>
<!-- Created with Inkscape (http://www.inkscape.org/) -->

<svg
   width="512"
   height="512"
   viewBox="0 0 135.46666 135.46667"
   version="1.1"
   id="svg5"
   inkscape:version="1.2.2 (b0a8486, 2022-12-01)"
   sodipodi:docname="logo_inkscape_512.svg"
   inkscape:export-filename="logo_24_android.svg"
   inkscape:export-xdpi="96"
   inkscape:export-ydpi="96"
   xmlns:inkscape="http://www.inkscape.org/namespaces/inkscape"
   xmlns:sodipodi="http://sodipodi.sourceforge.net/DTD/sodipodi-0.dtd"
   xmlns="http://www.w3.org/2000/svg"
   xmlns:svg="http://www.w3.org/2000/svg">
  <sodipodi:namedview
     id="namedview7"
     pagecolor="#ffffff"
     bordercolor="#000000"
     borderopacity="0.25"
     inkscape:showpageshadow="false"
     inkscape:pageopacity="0.0"
     inkscape:pagecheckerboard="0"
     inkscape:deskcolor="#d1d1d1"
     inkscape:document-units="mm"
     showgrid="false"
     showborder="false"
     borderlayer="false"
     inkscape:zoom="1"
     inkscape:cx="370.5"
     inkscape:cy="215"
     inkscape:window-width="1390"
     inkscape:window-height="1026"
     inkscape:window-x="412"
     inkscape:window-y="23"
     inkscape:window-maximized="0"
     inkscape:current-layer="layer1" />
  <defs
     id="defs2" />
  <g
     inkscape:label="Layer 1"
     inkscape:groupmode="layer"
     id="layer1">
    <circle
       style="font-variation-settings:normal;opacity:1;vector-effect:none;fill:#b2b2b2;fill-opacity:1;fill-rule:evenodd;stroke-width:0.328505;stroke-linecap:butt;stroke-linejoin:miter;stroke-miterlimit:4;stroke-dasharray:none;stroke-dashoffset:0;stroke-opacity:1;-inkscape-stroke:none;stop-color:#000000;stop-opacity:1"
       id="path4846"
       cx="92.525452"
       cy="-24.79212"
       r="38.933105"
       transform="rotate(60)" />
    <circle
       style="font-variation-settings:normal;opacity:1;fill:none;fill-opacity:1;fill-rule:evenodd;stroke:#b2b2b2;stroke-width:1.54535;stroke-linecap:butt;stroke-linejoin:miter;stroke-miterlimit:4;stroke-dasharray:3.09069, 1.54535;stroke-dashoffset:0;stroke-opacity:1;stop-color:#000000;stop-opacity:1"
       id="path4848"
       cx="92.522957"
       cy="-24.793379"
       r="39.050507"
       transform="rotate(60)" />
    <circle
       style="font-variation-settings:normal;opacity:1;vector-effect:none;fill:#e5e5e5;fill-opacity:1;fill-rule:evenodd;stroke-width:0.553483;stroke-linecap:butt;stroke-linejoin:miter;stroke-miterlimit:4;stroke-dasharray:none;stroke-dashoffset:0;stroke-opacity:1;-inkscape-stroke:none;stop-color:#000000;stop-opacity:1"
       id="path4850"
       cx="92.525452"
       cy="-24.79212"
       r="36.451313"
       transform="rotate(60)" />
    <circle
       style="font-variation-settings:normal;opacity:1;fill:none;fill-opacity:1;fill-rule:evenodd;stroke:#b2b2b2;stroke-width:1.04513;stroke-linecap:butt;stroke-linejoin:miter;stroke-miterlimit:4;stroke-dasharray:none;stroke-dashoffset:0;stroke-opacity:1;stop-color:#000000;stop-opacity:1"
       id="path4875"
       cx="92.525452"
       cy="-24.79212"
       r="31.378475"
       transform="rotate(60)" />
    <g
       aria-label="$"
       id="text4931"
       style="font-size:19.9239px;-inkscape-font-specification:'sans-serif, Normal';fill:#b2b2b2;stroke:#b2b2b2;stroke-width:0.414753"
       transform="matrix(1.9930184,0,0,1.9930184,-94.329908,-40.835704)">
      <g
         id="path1803">
        <path
           style="color:#000000;-inkscape-font-specification:'sans-serif, Normal';stroke:none;-inkscape-stroke:none"
           d="m 86.204204,56.687673 q 0,1.507913 -1.177145,2.509945 -1.177144,0.992304 -3.083924,1.177144 v 3.521706 h -1.147959 v -3.473063 q -1.284158,-0.0097 -2.41266,-0.243212 -1.128502,-0.243212 -1.955422,-0.622622 v -1.926236 h 0.155656 q 0.184841,0.136198 0.661535,0.398867 0.476695,0.25294 0.924205,0.418324 0.50588,0.184841 1.177144,0.350225 0.680993,0.155655 1.449542,0.184841 v -4.212427 q -0.389139,-0.07783 -0.719907,-0.145927 -0.330767,-0.07783 -0.612893,-0.155655 -1.58574,-0.398867 -2.276461,-1.196601 -0.690722,-0.807463 -0.690722,-1.984608 0,-1.439813 1.128503,-2.432117 1.13823,-0.992303 3.17148,-1.157687 v -2.646143 h 1.147959 v 2.626686 q 0.982575,0.01946 2.013793,0.233483 1.031217,0.214026 1.731667,0.496152 v 1.90678 h -0.136199 q -0.729635,-0.44751 -1.527369,-0.788006 -0.788006,-0.350225 -2.081892,-0.437781 v 4.192969 q 0.291854,0.04864 0.63235,0.136199 0.340497,0.07783 0.593437,0.12647 1.449542,0.311311 2.237547,1.070131 0.797735,0.75882 0.797735,2.072163 z m -5.409028,-3.570347 v -4.017857 q -1.040946,0.07783 -1.751124,0.57398 -0.710178,0.486423 -0.710178,1.361985 0,0.885291 0.525337,1.3328 0.525337,0.44751 1.935965,0.749092 z m 3.570347,3.823288 q 0,-0.914476 -0.573979,-1.3328 -0.564251,-0.428053 -1.848409,-0.671265 v 4.027586 q 1.167416,-0.116742 1.790038,-0.593437 0.63235,-0.476695 0.63235,-1.430084 z"
           id="path1820" />
        <path
           style="color:#000000;-inkscape-font-specification:'sans-serif, Normal';stroke:none;-inkscape-stroke:none"
           d="m 80.587891,44.845703 v 2.685547 c -1.287288,0.134678 -2.34005,0.505788 -3.09961,1.167969 l -0.002,0.002 c -0.789686,0.694379 -1.199219,1.573837 -1.199219,2.58789 0,0.825324 0.249349,1.543006 0.742188,2.119141 0.50069,0.578262 1.300844,0.989567 2.382812,1.261719 0.190081,0.05238 0.393839,0.104155 0.615235,0.15625 l 0.0039,0.002 h 0.002 c 0.170094,0.03502 0.361611,0.07444 0.554688,0.113281 v 3.806641 c -0.416575,-0.02673 -0.822162,-0.06705 -1.195313,-0.152344 l 0.002,0.002 c -0.441833,-0.108857 -0.826089,-0.223828 -1.154297,-0.34375 -0.288032,-0.106446 -0.586491,-0.241848 -0.896484,-0.40625 h -0.002 C 77.028481,57.6751 76.810777,57.542872 76.705072,57.464985 l -0.05469,-0.04102 H 76.21875 v 2.267578 l 0.121094,0.05469 c 0.568513,0.260847 1.2342,0.472096 1.998047,0.636718 h 0.002 c 0.702911,0.145448 1.460164,0.20895 2.248047,0.226563 v 3.494141 h 1.5625 v -3.564454 c 1.210882,-0.14755 2.23102,-0.52713 3.009765,-1.183593 h 0.002 c 0.82386,-0.701302 1.25,-1.608732 1.25,-2.667969 0,-0.916485 -0.28755,-1.673792 -0.861328,-2.220703 -0.560894,-0.54012 -1.345253,-0.911816 -2.33789,-1.125 h -0.002 -0.002 c -0.16374,-0.03149 -0.359658,-0.07228 -0.582031,-0.123047 l -0.0059,-0.002 c -0.167587,-0.04298 -0.31905,-0.0722 -0.470703,-0.101563 V 49.34375 c 0.719662,0.06785 1.352405,0.178109 1.791015,0.373047 l 0.002,0.002 c 0.522649,0.223081 1.022309,0.480453 1.5,0.773437 l 0.05078,0.03125 h 0.402343 V 48.269578 L 85.76563,48.216848 C 85.282802,48.022326 84.696082,47.853454 84,47.708984 83.370094,47.578251 82.75563,47.519825 82.150391,47.496094 v -2.650391 z m 0.414062,0.414063 h 0.734375 v 2.623046 l 0.203125,0.0039 c 0.641437,0.0127 1.298739,0.08824 1.974609,0.228515 0.626573,0.130044 1.133678,0.284215 1.566407,0.449219 v 1.480469 c -0.441273,-0.260335 -0.894213,-0.503282 -1.371094,-0.707031 -0.55797,-0.247987 -1.274,-0.395642 -2.152344,-0.455079 l -0.220703,-0.01563 v 4.591797 l 0.171875,0.02734 c 0.187565,0.03126 0.393108,0.07569 0.615234,0.132813 l 0.0039,0.002 h 0.002 c 0.228724,0.05228 0.427786,0.09587 0.599609,0.128906 0.937492,0.202045 1.643938,0.544856 2.132813,1.015625 h 0.002 c 0.488534,0.464702 0.732422,1.088301 0.732422,1.921875 0,0.951312 -0.357851,1.716823 -1.103516,2.351562 -0.747424,0.630061 -1.728958,1.008723 -2.96875,1.128907 l -0.1875,0.01758 v 3.503906 H 81.00204 V 60.21683 h -0.205078 c -0.843307,-0.0064 -1.634001,-0.08785 -2.371094,-0.240235 h -0.002 C 77.730856,59.8271 77.146753,59.632552 76.634766,59.408203 v -1.503906 c 0.136658,0.08896 0.270926,0.175035 0.509765,0.30664 l 0.002,0.002 c 0.325,0.172448 0.641093,0.315814 0.949219,0.429687 h 0.002 C 78.443955,58.76911 78.843691,58.888346 79.296875,59 h 0.002 c 0.46777,0.106919 0.964267,0.171507 1.488281,0.191406 l 0.214844,0.0078 v -4.597657 l -0.166016,-0.0332 c -0.256934,-0.05139 -0.494343,-0.09955 -0.71289,-0.144531 l -0.0059,-0.002 C 79.901363,54.370958 79.7009,54.320042 79.517585,54.269474 h -0.002 l -0.002,-0.002 C 78.482433,54.008187 77.764207,53.623319 77.34375,53.138672 l -0.002,-0.002 c -0.427034,-0.500112 -0.638672,-1.1044 -0.638672,-1.847657 0,-0.905694 0.341658,-1.648652 1.056641,-2.277343 0.717017,-0.625092 1.727523,-0.99963 3.052734,-1.107422 l 0.189453,-0.01367 z m 0,3.617187 -0.222656,0.01563 c -0.722453,0.05402 -1.343555,0.256864 -1.851563,0.611328 -0.520304,0.357063 -0.800781,0.892115 -0.800781,1.53125 0,0.631213 0.196045,1.148121 0.597656,1.490235 0.40247,0.342844 1.071566,0.590583 2.027344,0.794921 l 0.25,0.05273 v -0.25586 z m -0.414062,0.501953 v 3.439453 c -0.728122,-0.182938 -1.336195,-0.388022 -1.59375,-0.607422 -0.298837,-0.254564 -0.453125,-0.626607 -0.453125,-1.175781 0,-0.527639 0.195501,-0.899905 0.621093,-1.191406 0.379406,-0.265064 0.878644,-0.391267 1.425782,-0.464844 z m 1.148437,5.306641 v 4.507812 l 0.226563,-0.02344 c 0.80146,-0.08015 1.436395,-0.282749 1.894531,-0.632813 l 0.002,-0.002 c 0.47324,-0.357857 0.712891,-0.913315 0.712891,-1.59375 0,-0.6513 -0.217823,-1.176568 -0.65625,-1.498047 -0.421451,-0.319721 -1.061091,-0.54569 -1.933594,-0.710937 z m 0.414063,0.542969 c 0.662563,0.151529 1.230932,0.328947 1.515625,0.544921 h 0.002 l 0.002,0.002 c 0.324525,0.236518 0.488281,0.599752 0.488281,1.166015 0,0.589744 -0.18228,0.985879 -0.550781,1.263672 -0.321523,0.246166 -0.850717,0.386472 -1.457031,0.478516 z"
           id="path1817" />
      </g>
    </g>
  </g>
</svg>
